<svg xmlns="http://www.w3.org/2000/svg" viewBox="0 0 1280 720">
  <defs>
    <linearGradient id="bg" x1="0" y1="0" x2="1" y2="1">
      <stop offset="0%" stop-color="#081425"/>
      <stop offset="100%" stop-color="#12070a"/>
    </linearGradient>
    <linearGradient id="c1" x1="0" y1="0" x2="1" y2="1">
      <stop offset="0%" stop-color="#7cf5ff"/>
      <stop offset="100%" stop-color="#9f86ff"/>
    </linearGradient>
    <linearGradient id="c2" x1="0" y1="0" x2="1" y2="1">
      <stop offset="0%" stop-color="#ffb347"/>
      <stop offset="100%" stop-color="#ff6b2f"/>
    </linearGradient>
    <linearGradient id="c3" x1="0" y1="0" x2="1" y2="1">
      <stop offset="0%" stop-color="#8dff7a"/>
      <stop offset="100%" stop-color="#2bff5a"/>
    </linearGradient>
  </defs>
  <rect width="1280" height="720" fill="url(#bg)"/>
  <text x="60" y="80" fill="#8df9ff" font-size="34" font-family="Segoe UI, Arial, sans-serif" letter-spacing="3">BOSSES LEGENDARIOS</text>
  <g transform="translate(70,130)">
    <rect width="360" height="500" rx="24" fill="#0d1628" stroke="#2e456b"/>
    <circle cx="180" cy="220" r="92" fill="#131a2a"/>
    <circle cx="180" cy="220" r="56" fill="url(#c1)"/>
    <ellipse cx="180" cy="220" rx="145" ry="24" fill="none" stroke="#7cf5ff" stroke-width="10"/>
    <text x="180" y="430" fill="#eef4ff" font-size="34" text-anchor="middle" font-family="Segoe UI, Arial, sans-serif">Null Sentinel</text>
  </g>
  <g transform="translate(460,130)">
    <rect width="360" height="500" rx="24" fill="#211112" stroke="#6a3b2f"/>
    <circle cx="180" cy="220" r="100" fill="#220f0f"/>
    <circle cx="180" cy="220" r="60" fill="url(#c2)"/>
    <ellipse cx="180" cy="220" rx="155" ry="28" fill="none" stroke="#ff7a3d" stroke-width="12"/>
    <text x="180" y="430" fill="#fff0e7" font-size="34" text-anchor="middle" font-family="Segoe UI, Arial, sans-serif">Inferno Tyrant</text>
  </g>
  <g transform="translate(850,130)">
    <rect width="360" height="500" rx="24" fill="#0f1b12" stroke="#335a3a"/>
    <circle cx="180" cy="220" r="96" fill="#112015"/>
    <circle cx="180" cy="220" r="58" fill="url(#c3)"/>
    <ellipse cx="180" cy="220" rx="150" ry="26" fill="none" stroke="#8dff7a" stroke-width="11"/>
    <text x="180" y="430" fill="#f1fff0" font-size="34" text-anchor="middle" font-family="Segoe UI, Arial, sans-serif">Radlord Prime</text>
  </g>
</svg>
